<?xml version="1.0" encoding="utf-8"?>
<!-- Generator: Adobe Illustrator 16.0.0, SVG Export Plug-In . SVG Version: 6.00 Build 0)  -->
<!DOCTYPE svg PUBLIC "-//W3C//DTD SVG 1.1//EN" "http://www.w3.org/Graphics/SVG/1.1/DTD/svg11.dtd">
<svg version="1.1" id="Layer_1" xmlns="http://www.w3.org/2000/svg" xmlns:xlink="http://www.w3.org/1999/xlink" x="0px" y="0px"
	 width="226.772px" height="48.34px" viewBox="0 0 226.772 48.34" enable-background="new 0 0 226.772 48.34" xml:space="preserve">
<g>
	<g>
		<path d="M12.524,2.72v24.719H9.6V2.72H0V0h22.166v2.72H12.524z"/>
		<path d="M63.648,27.439V14.214H47.456v13.225h-2.883V0h2.883v11.536h16.192V0h2.883v27.439H63.648z"/>
		<path d="M109.825,27.439l-6.221-11.619h-8.859v11.619h-2.883V0h11.7c5.273,0,8.817,3.007,8.817,7.746
			c0,3.79-2.308,6.468-5.81,7.581l6.551,12.112H109.825z M103.479,2.72h-8.734v10.382h8.859c3.584,0,5.727-2.102,5.727-5.15
			C109.331,4.78,107.023,2.72,103.479,2.72z"/>
		<path d="M136.268,27.439V0h2.883v27.439H136.268z"/>
		<path d="M185.416,0l-10.63,27.439h-2.967L161.189,0h3.091l9.021,24.02L182.531,0H185.416z"/>
		<path d="M207.451,27.439V0h18.909v2.72h-15.985v8.816h13.927v2.678h-13.927v10.505h16.397v2.72H207.451z"/>
	</g>
	<g>
		<path d="M6.749,42.277c-0.511-0.824-1.247-1.248-2.221-1.248c-1.583,0-2.594,1.223-2.594,2.981c0,1.797,1.01,3.032,2.582,3.032
			c0.986,0,1.723-0.486,2.221-1.31l1.21,0.698C7.21,47.628,6.05,48.34,4.503,48.34c-2.446,0-4.092-1.784-4.092-4.316
			c0-2.508,1.646-4.292,4.08-4.292c1.447,0,2.62,0.599,3.406,1.809L6.749,42.277z"/>
		<path d="M19.245,48.34c-2.544,0-4.128-1.871-4.128-4.305c0-2.433,1.584-4.304,4.128-4.304c2.545,0,4.13,1.871,4.13,4.304
			C23.375,46.469,21.79,48.34,19.245,48.34z M19.245,41.079c-1.646,0-2.607,1.248-2.607,2.957s0.961,2.956,2.607,2.956
			c1.635,0,2.608-1.247,2.608-2.956S20.879,41.079,19.245,41.079z"/>
		<path d="M36.595,48.19l-3.904-6.438v6.438h-1.398v-8.309h1.847l3.806,6.288v-6.288h1.397v8.309H36.595z"/>
		<path d="M52.759,41.279l-1.098,0.736c-0.524-0.699-1.323-1.049-2.208-1.049c-0.824,0-1.511,0.3-1.511,1.061
			c0,0.786,0.836,0.961,1.847,1.186c1.647,0.35,3.119,0.812,3.119,2.509c0,1.533-1.248,2.619-3.281,2.619
			c-1.647,0-2.906-0.712-3.542-1.847l1.172-0.687c0.561,0.924,1.497,1.299,2.458,1.299c1.035,0,1.733-0.45,1.733-1.224
			c0-0.886-0.898-1.048-2.083-1.284c-1.509-0.313-2.882-0.812-2.882-2.445c0-1.522,1.261-2.421,3.02-2.421
			C50.788,39.732,51.999,40.218,52.759,41.279z"/>
		<path d="M66.653,42.277c-0.511-0.824-1.247-1.248-2.221-1.248c-1.583,0-2.594,1.223-2.594,2.981c0,1.797,1.011,3.032,2.582,3.032
			c0.986,0,1.723-0.486,2.221-1.31l1.21,0.698c-0.736,1.197-1.897,1.909-3.444,1.909c-2.445,0-4.092-1.784-4.092-4.316
			c0-2.508,1.647-4.292,4.08-4.292c1.447,0,2.62,0.599,3.406,1.809L66.653,42.277z"/>
		<path d="M75.619,48.19v-8.309h1.448v8.309H75.619z"/>
		<path d="M89.111,48.34c-2.544,0-4.129-1.871-4.129-4.305c0-2.433,1.585-4.304,4.129-4.304c2.545,0,4.13,1.871,4.13,4.304
			C93.241,46.469,91.656,48.34,89.111,48.34z M89.111,41.079c-1.647,0-2.607,1.248-2.607,2.957s0.96,2.956,2.607,2.956
			c1.635,0,2.607-1.247,2.607-2.956S90.746,41.079,89.111,41.079z"/>
		<path d="M108.046,45.035c0,2.071-1.447,3.306-3.494,3.306c-2.058,0-3.48-1.234-3.48-3.306v-5.153h1.459v5.153
			c0,1.209,0.736,1.957,2.021,1.957c1.26,0,2.047-0.748,2.047-1.957v-5.153h1.447V45.035z"/>
		<path d="M122.376,41.279l-1.098,0.736c-0.524-0.699-1.323-1.049-2.208-1.049c-0.824,0-1.511,0.3-1.511,1.061
			c0,0.786,0.837,0.961,1.848,1.186c1.646,0.35,3.119,0.812,3.119,2.509c0,1.533-1.248,2.619-3.281,2.619
			c-1.647,0-2.906-0.712-3.543-1.847l1.173-0.687c0.561,0.924,1.497,1.299,2.457,1.299c1.035,0,1.734-0.45,1.734-1.224
			c0-0.886-0.899-1.048-2.084-1.284c-1.509-0.313-2.882-0.812-2.882-2.445c0-1.522,1.261-2.421,3.02-2.421
			C120.406,39.732,121.617,40.218,122.376,41.279z"/>
		<path d="M137.87,41.154v2.146h3.979v1.273h-3.979v3.617h-1.461v-8.309h6.164v1.272H137.87z"/>
		<path d="M155.331,48.19l-0.786-2.121h-3.443l-0.785,2.121h-1.585l3.256-8.309h1.722l3.257,8.309H155.331z M152.835,41.167
			l-1.347,3.68h2.657L152.835,41.167z"/>
		<path d="M170.448,41.279l-1.099,0.736c-0.523-0.699-1.322-1.049-2.207-1.049c-0.824,0-1.511,0.3-1.511,1.061
			c0,0.786,0.837,0.961,1.847,1.186c1.647,0.35,3.12,0.812,3.12,2.509c0,1.533-1.249,2.619-3.282,2.619
			c-1.646,0-2.906-0.712-3.542-1.847l1.173-0.687c0.561,0.924,1.497,1.299,2.457,1.299c1.035,0,1.733-0.45,1.733-1.224
			c0-0.886-0.898-1.048-2.083-1.284c-1.509-0.313-2.882-0.812-2.882-2.445c0-1.522,1.261-2.421,3.02-2.421
			C168.477,39.732,169.687,40.218,170.448,41.279z"/>
		<path d="M184.079,48.19V44.46h-4.116v3.729h-1.46v-8.309h1.46v3.269h4.116v-3.269h1.473v8.309H184.079z"/>
		<path d="M193.98,48.19v-8.309h1.448v8.309H193.98z"/>
		<path d="M207.472,48.34c-2.544,0-4.129-1.871-4.129-4.305c0-2.433,1.585-4.304,4.129-4.304c2.545,0,4.13,1.871,4.13,4.304
			C211.602,46.469,210.017,48.34,207.472,48.34z M207.472,41.079c-1.646,0-2.607,1.248-2.607,2.957s0.961,2.956,2.607,2.956
			c1.635,0,2.607-1.247,2.607-2.956S209.107,41.079,207.472,41.079z"/>
		<path d="M224.823,48.19l-3.904-6.438v6.438h-1.398v-8.309h1.847l3.806,6.288v-6.288h1.397v8.309H224.823z"/>
	</g>
</g>
</svg>
