<?xml version="1.0" encoding="utf-8"?>
<!-- Generator: Adobe Illustrator 16.0.0, SVG Export Plug-In . SVG Version: 6.00 Build 0)  -->
<!DOCTYPE svg PUBLIC "-//W3C//DTD SVG 1.1//EN" "http://www.w3.org/Graphics/SVG/1.1/DTD/svg11.dtd">
<svg version="1.1" id="Layer_1" xmlns="http://www.w3.org/2000/svg" xmlns:xlink="http://www.w3.org/1999/xlink" x="0px" y="0px"
	 width="191.021px" height="203.887px" viewBox="0 0 191.021 203.887" enable-background="new 0 0 191.021 203.887"
	 xml:space="preserve">
<g>
	<g>
		<path d="M14.305,184.083v19.804h-2.343v-19.804h-7.69v-2.179h17.757v2.179H14.305z"/>
		<path d="M55.26,203.887v-10.596H42.288v10.596h-2.31v-21.982h2.31v9.241H55.26v-9.241h2.31v21.982H55.26z"/>
		<path d="M92.252,203.887l-4.983-9.309h-7.097v9.309h-2.31v-21.982h9.373c4.225,0,7.063,2.41,7.063,6.206
			c0,3.035-1.849,5.181-4.654,6.072l5.248,9.704H92.252z M87.169,184.083h-6.997v8.318h7.097c2.871,0,4.588-1.685,4.588-4.126
			C91.856,185.735,90.008,184.083,87.169,184.083z"/>
		<path d="M113.436,203.887v-21.982h2.31v21.982H113.436z"/>
		<path d="M152.808,181.905l-8.516,21.982h-2.376l-8.516-21.982h2.476l7.228,19.243l7.394-19.243H152.808z"/>
		<path d="M170.46,203.887v-21.982h15.148v2.179h-12.806v7.063h11.156v2.146h-11.156v8.416h13.136v2.18H170.46z"/>
	</g>
	<path d="M95.51,0L0,165.429h191.021L95.51,0z M158.66,113.679l28.636,49.6H96.084v-49.6H158.66z M157.418,111.529H33.602
		L95.51,4.301L157.418,111.529z M32.36,113.679h61.573v49.6H3.725L32.36,113.679z"/>
</g>
</svg>
